<?xml version="1.0" encoding="UTF-8"?>
<svg id="Capa_2" data-name="Capa 2" xmlns="http://www.w3.org/2000/svg" viewBox="0 0 618.69 448.01">
  <defs>
    <style>
      .cls-1 {
        fill: #fff;
      }

      .cls-1, .cls-2, .cls-3 {
        stroke-width: 0px;
      }

      .cls-2 {
        fill: #8bc04b;
      }

      .cls-3 {
        fill: #e9c43b;
      }
    </style>
  </defs>
  <g id="Capa_1-2" data-name="Capa 1">
    <g>
      <g>
        <path class="cls-2" d="M364.09,257.03c-3.07.58-6.23,1.04-9.48,1.38-46.77,4.83-78.49-21.53-109.16-47.03-2.84-2.36-5.66-4.7-8.47-7.01-6.22,8.69-12.59,16.65-19.05,23.57-13.41,14.35-27.23,24.2-41.05,29.28-12.65,4.65-25.49,5.26-37.15,1.76-22.94-6.88-36.14-27.05-39.04-43.99-3.31-19.33,2.46-39.54,15.05-52.73,8.63-9.04,24.45-19.14,50.85-15.89,25.8,3.18,46.69,14.66,65.7,28.58,27.29-43.41,51.17-99.07,65.73-132.99,2.33-5.44,4.35-10.13,6.14-14.23,2.81-6.41,9.15-10.33,16.14-9.98,6.72.34,12.44,4.55,14.78,10.79,1.54,3.24,9.45,19.96,18.08,38.65,13.27-28.79,25.49-57.02,25.71-57.51.09-.21.18-.41.28-.6,3.09-6.03,9.45-9.57,16.21-9.02,6.66.54,12.31,4.95,14.45,11.26,1.13,3.05,13.19,36.13,20.68,77.35,10.57,58.23,6.77,102.52-11.29,131.65-12.26,19.78-30.77,32.09-55.1,36.71M248.34,187.45c3.38,2.76,6.74,5.55,10.07,8.32,28.71,23.87,55.82,46.41,94.1,42.45,22.79-2.35,38.95-11.71,49.42-28.59,31.72-51.15,1.56-153.22-8.33-183.04-5.99,13.67-17.95,40.67-29.41,64.89,5.06,11.29,9.45,21.45,11.86,27.78,7.54,19.85,5.72,39.94-4.85,53.76-7.21,9.42-17.46,14.22-28.11,13.16-11.2-1.11-20.67-7.41-25.33-16.84-4.29-8.68-6.41-23.89,7.9-47.06,4.07-6.6,9.88-17.97,16.18-31.03-8.36-18.4-17.61-38.14-22.28-48.04-.91,2.11-1.87,4.36-2.9,6.75-14.98,34.91-39.6,92.28-68.32,137.5M148.25,166.79c-7.14,1.35-13.11,4.52-17.83,9.47-8.12,8.51-11.94,22.37-9.73,35.3,1.78,10.42,10.32,23.62,24.86,27.98,16.99,5.09,37.43-3.95,57.56-25.47,6.05-6.47,12.04-13.98,17.92-22.24-17.19-12.69-35.17-22.65-56.92-25.33-5.8-.71-11.09-.62-15.86.29M352.54,115.36c-3.65,7.16-6.95,13.26-9.62,17.58-7.24,11.73-9.79,21.72-6.97,27.41,1.82,3.67,5.92,5.33,9.15,5.65,4.8.48,8.32-3.12,10-5.31,4.84-6.33,7.91-18.64,2-34.22h0c-1.1-2.9-2.67-6.7-4.55-11.1"/>
        <path class="cls-3" d="M319.56,43.2c.12.26.25.53.38.8l-.12-.54s7.97-27.82,16.59-12.1c-.61-1.29-1.07-2.26-1.33-2.82-2.34-6.24-8.06-10.45-14.78-10.79-6.99-.35-13.32,3.56-16.13,9.98-1.79,4.09-3.81,8.79-6.14,14.23-14.54,33.88-38.38,89.44-65.63,132.83l.07.11-11.49,17.67-.55.12c-5.68,7.92-11.47,15.15-17.31,21.4-20.12,21.52-40.56,30.56-57.56,25.47-14.54-4.36-23.08-17.56-24.86-27.98-.21-1.21-.34-2.43-.45-3.65h-.02s0-.16-.02-.44c-.17-2.33-.16-4.66.03-6.97.58-14.96,4.87-47.93,31.01-54.54-17.42,1.38-28.7,9.16-35.51,16.29-12.59,13.19-18.36,33.4-15.05,52.73,2.9,16.94,16.09,37.11,39.04,43.99,11.65,3.49,24.5,2.88,37.15-1.77,13.83-5.08,27.64-14.93,41.05-29.28,6.4-6.85,12.71-14.73,18.88-23.33l-.04-.2s10.99-16.92,11.61-17.04c0,0,.02,0,.03,0,28.69-45.21,53.29-102.52,68.26-137.41,1.03-2.39,1.99-4.64,2.9-6.75"/>
        <path class="cls-3" d="M409.8,11.32c-2.15-6.31-7.79-10.72-14.45-11.26-6.75-.55-13.11,2.99-16.21,9.02-.1.2-.2.4-.28.6-.22.5-49.15,106.04-53.19,112.6-14.3,23.17-12.19,38.38-7.9,47.06,4.67,9.44,14.14,15.73,25.33,16.84,2.15.21,4.28.17,6.38-.08-29.11-1.11-12.77-41.69-12.14-42.27h0c1.34-3.39,3.2-7.05,5.58-10.89,2.44-3.96,5.43-9.42,8.72-15.82.43-1.09,13.59-28.04,14.17-29.03,10.96-23.3,22.1-48.46,27.81-61.49,9.89,29.82,40.05,131.89,8.33,183.04-8.56,13.81-20.93,22.58-37.62,26.6l.05.09c2.26-.41,69.12-15.54,71.91-92.6-.24-16.67-2.18-35.04-5.81-55.06-7.48-41.22-19.55-74.3-20.68-77.35"/>
        <path class="cls-3" d="M446.68,73.45c0,19.95,16.17,36.12,36.12,36.12s36.13-16.17,36.13-36.12-16.17-36.12-36.13-36.12-36.12,16.17-36.12,36.12"/>
      </g>
      <g>
        <g>
          <path class="cls-1" d="M101.19,443.86v3.74h-24.15v-36.35h23.83v3.74h-20.09v12.57h18.49v3.74h-18.49v12.57h20.41Z"/>
          <path class="cls-1" d="M142.52,411.25v36.35h-3.43l-20.46-29.49v29.49h-3.74v-36.35h3.43l20.46,29.39v-29.39h3.74Z"/>
          <path class="cls-1" d="M180.42,443.86v3.74h-24.15v-36.35h23.83v3.74h-20.09v12.57h18.49v3.74h-18.49v12.57h20.41Z"/>
          <path class="cls-1" d="M215.72,447.6l-7.79-13.81h-10.07v13.81h-3.74v-36.35h13.6c6.8,0,11.42,5.14,11.42,11.27,0,4.78-2.91,8.93-7.32,10.54l8.2,14.54h-4.31ZM197.86,430.05h9.87c4.62,0,7.53-3.48,7.53-7.53s-2.91-7.53-7.53-7.53h-9.87v15.06Z"/>
          <path class="cls-1" d="M264.06,439.71c-3.12,4.98-8.57,8.31-15.01,8.31-10.23,0-17.97-8.31-17.97-18.54s7.74-18.54,17.97-18.54c6.44,0,11.84,3.27,15.01,8.31l-3.32,1.61c-2.54-3.74-6.7-6.23-11.68-6.23-8.2,0-14.12,6.65-14.12,14.85s5.92,14.85,14.12,14.85c4.57,0,8.83-2.28,11.27-5.45v-6.18h-11.37v-3.74h15.11v10.75Z"/>
          <path class="cls-1" d="M281.25,411.25v36.35h-3.74v-36.35h3.74ZM285.97,400.86l-5.14,7.11h-2.86l4.05-7.11h3.95Z"/>
          <path class="cls-1" d="M316.76,437.06h-14.7l-3.95,10.54h-4.15l13.71-36.35h3.43l13.76,36.35h-4.15l-3.95-10.54ZM315.36,433.32l-5.97-16.1-5.92,16.1h11.89Z"/>
        </g>
        <g>
          <path class="cls-1" d="M378.77,437.47c0,7.01-6.59,10.54-13.24,10.54-8.21,0-13.09-3.89-14.59-8l3.58-1.25c1.45,3.48,5.4,5.5,10.9,5.5,3.84,0,9.55-1.71,9.55-6.8,0-3.95-3.06-5.04-10.18-6.33-7.12-1.3-12.88-3.27-12.93-9.97-.05-5.35,4-10.28,12.93-10.28,6.39,0,11.11,3.38,12.46,7.79l-3.58,1.25c-.94-3.89-4.88-5.3-8.88-5.3-5.66,0-9.19,2.23-9.19,6.54,0,3.63,2.96,5.09,9.81,6.28,6.7,1.09,13.34,2.86,13.34,10.02Z"/>
          <path class="cls-1" d="M425.66,429.48c0,10.23-7.37,18.54-17.6,18.54s-17.65-8.31-17.65-18.54,7.43-18.54,17.65-18.54,17.6,8.31,17.6,18.54ZM421.82,429.48c0-8.2-5.61-14.85-13.76-14.85s-13.81,6.65-13.81,14.85,5.61,14.85,13.81,14.85,13.76-6.65,13.76-14.85Z"/>
          <path class="cls-1" d="M460.71,443.86v3.74h-21.81v-36.35h3.74v32.61h18.07Z"/>
          <path class="cls-1" d="M494.92,437.06h-14.7l-3.95,10.54h-4.15l13.71-36.35h3.43l13.76,36.35h-4.15l-3.95-10.54ZM493.52,433.32l-5.97-16.1-5.92,16.1h11.89Z"/>
          <path class="cls-1" d="M537.35,447.6l-7.79-13.81h-10.07v13.81h-3.74v-36.35h13.6c6.8,0,11.42,5.14,11.42,11.27,0,4.78-2.91,8.93-7.32,10.54l8.2,14.54h-4.31ZM519.48,430.05h9.87c4.62,0,7.53-3.48,7.53-7.53s-2.91-7.53-7.53-7.53h-9.87v15.06Z"/>
        </g>
      </g>
      <g>
        <path class="cls-1" d="M43.33,368.94v13.1H0v-72.21h13.72v59.11h29.61Z"/>
        <path class="cls-1" d="M100.17,365.75h-24.45l-5.57,16.3h-15.58l26.41-72.21h14.03l26.41,72.21h-15.58l-5.67-16.3ZM95.63,352.64l-7.63-22.18-7.63,22.18h15.27Z"/>
        <path class="cls-1" d="M184.77,361.1c0,11.97-8.36,22.18-26.31,22.18-14.13,0-26.93-7.53-28.99-17.95l12.59-4.85c1.34,5.47,7.63,8.87,15.17,8.87,8.36,0,12.9-3.3,12.9-7.74s-3.51-6.19-15.27-9.7c-16.61-4.95-23.42-11.25-23.42-21.87,0-9.49,6.91-20.84,25.48-20.84,11.04,0,22.28,5.88,24.35,16.2l-12.17,4.54c-.93-4.54-6.81-7.01-12.07-7.12-5.78-.1-11.04,1.96-11.04,6.71,0,3.4,2.68,5.57,14.03,9.08,14.24,4.33,24.76,9.08,24.76,22.49Z"/>
        <path class="cls-1" d="M302.79,309.83v72.21h-13.72v-45.5l-17.64,28.47h-8.15l-17.64-28.47v45.5h-13.72v-72.21h12.79l22.59,36.52,22.8-36.52h12.69Z"/>
        <path class="cls-1" d="M361.19,365.75h-24.45l-5.57,16.3h-15.58l26.41-72.21h14.03l26.41,72.21h-15.58l-5.67-16.3ZM356.65,352.64l-7.63-22.18-7.63,22.18h15.27Z"/>
        <path class="cls-1" d="M418.86,357.29h-10.01v24.76h-13.72v-72.21h26.72c16.09,0,25.07,10.52,25.07,23.73,0,9.7-4.75,17.95-13.72,21.66l15.47,26.82h-15.47l-14.34-24.76ZM408.85,344.19h12.69c6.81,0,11.14-4.44,11.14-10.63s-4.33-10.52-11.14-10.52h-12.69v21.15Z"/>
        <path class="cls-1" d="M475.7,309.83v72.21h-13.72v-72.21h13.72ZM483.75,289.1l-10.73,14.13h-8.77l6.91-14.13h12.59Z"/>
        <path class="cls-1" d="M534.1,365.75h-24.45l-5.57,16.3h-15.58l26.41-72.21h14.03l26.41,72.21h-15.58l-5.67-16.3ZM529.56,352.64l-7.63-22.18-7.63,22.18h15.27Z"/>
        <path class="cls-1" d="M618.69,361.1c0,11.97-8.36,22.18-26.31,22.18-14.13,0-26.93-7.53-28.99-17.95l12.59-4.85c1.34,5.47,7.63,8.87,15.17,8.87,8.36,0,12.89-3.3,12.89-7.74s-3.51-6.19-15.27-9.7c-16.61-4.95-23.42-11.25-23.42-21.87,0-9.49,6.91-20.84,25.48-20.84,11.04,0,22.29,5.88,24.35,16.2l-12.17,4.54c-.93-4.54-6.81-7.01-12.07-7.12-5.78-.1-11.04,1.96-11.04,6.71,0,3.4,2.68,5.57,14.03,9.08,14.24,4.33,24.76,9.08,24.76,22.49Z"/>
      </g>
    </g>
  </g>
</svg>